<?xml version="1.0" encoding="utf-8"?>
<!-- Generator: Adobe Illustrator 26.5.0, SVG Export Plug-In . SVG Version: 6.00 Build 0)  -->
<svg version="1.1" id="Layer_1" xmlns="http://www.w3.org/2000/svg" xmlns:xlink="http://www.w3.org/1999/xlink" x="0px" y="0px"
	 viewBox="0 0 151 149.8" style="enable-background:new 0 0 151 149.8;" xml:space="preserve">
<style type="text/css">
	.st0{fill:#FFFFFF;}
	.st1{fill:none;stroke:#FFFFFF;stroke-miterlimit:10;}
</style>
<g id="Layer_1_00000073712282808989159010000004394029549645464754_">
	
		<image style="display:none;overflow:visible;enable-background:new    ;" width="150" height="150" xlink:href="D4D6FB88.png"  transform="matrix(1 0 0 1 2.8 20.8)">
	</image>
</g>
<g id="New_Logo">
</g>
<g id="Layer_3">
</g>
<g id="Layer_4">
</g>
<g id="XMLID_00000021109102100757432760000016763646266810493328_">
	<g>
		<path class="st0" d="M101,34.2c16.2,6.2,38,49.2,6.5,76.4l-0.2,6.4l-5.7,3.6l0.1-27.6l0.1-49.7l-4.3-2.6L101,34.2z M107.7,99.9
			c6.9-7.4,17.9-29.8,0-48.7V99.9z"/>
		<path class="st0" d="M100.6,28L95,39.5L87.4,55h6.9v7.2h-6c7.9,8.6,11.1,20,11.1,30.9c0,18.6-9.3,35.4-19.7,33.6V72.2l-6.9,11
			l-3.1-1.7L78.2,65v-4.1h-1.5v-5.5h3.1v-22h-3.1v-7.2h3.1v-2.9l0,0h5.4v4.3h6.3l-1.9,6.7l-3.3,0.2l0.5,11l9.5-20.1L100.6,28z
			 M91.3,93.7h-5.5v20.1C90.3,112.5,91.3,99.4,91.3,93.7z M85.8,87.9h4.5c-0.2-4.8-0.2-9.8-4.5-16.7V87.9z"/>
		<path class="st0" d="M75.5,0.5c100,0,100,148.8,0,148.8S-24.5,0.5,75.5,0.5z M77.6,141.2c86.8-1.4,84.6-134-2.1-132.5
			C-14.6,10.1-12.4,142.7,77.6,141.2z"/>
		<polygon class="st0" points="70.2,84.4 75.5,124.2 70,124.2 64.5,84.4 		"/>
		<path class="st0" d="M71.9,42.1v33.4h-11v49.9l-6.4-2.9v-47H41.6C41.6,57.4,49.7,43,71.9,42.1z M66,69.6V50.5
			c-7.2,0-17.9,12.9-18,19.1H66z"/>
		<path class="st0" d="M71.7,26.8v7.6C57.8,37,38,47.1,34.2,70.9h-6.5c2.1-16.7,11.9-33.4,27-38.7l0.2-5.2l6.7-2.1v3.8
			C65.2,28.5,69.5,26.8,71.7,26.8z"/>
		<path class="st0" d="M48.7,107v7.9c-8.1-6.2-19.1-12.6-22-37.2h6.9C35.1,85.8,41.3,103,48.7,107z"/>
	</g>
	<g>
		<path class="st1" d="M75.5,0.5c100,0,100,148.8,0,148.8S-24.5,0.5,75.5,0.5z"/>
		<path class="st1" d="M75.5,8.7c86.8-1.4,88.9,131.1,2.1,132.5C-12.4,142.7-14.6,10.1,75.5,8.7z"/>
		<path class="st1" d="M75.5,14.9c77-1.1,78.6,118.6,1.7,119.6C-2.6,135.6-4.2,16,75.5,14.9z"/>
		<path class="st1" d="M54.9,27l6.7-2.1v3.8c3.6-0.2,7.9-1.9,10-1.9v7.6C57.7,37,37.9,47.1,34.1,70.9h-6.5
			c2.1-16.7,11.9-33.4,27-38.7L54.9,27z"/>
		<path class="st1" d="M26.8,77.7h6.9c1.4,8.1,7.6,25.3,15,29.4v7.9C40.6,108.7,29.6,102.3,26.8,77.7z"/>
		<path class="st1" d="M71.9,42.1v33.4h-11v49.9l-6.4-2.9v-47H41.6C41.6,57.4,49.7,43,71.9,42.1z"/>
		<path class="st1" d="M66,50.4v19.1H48C48,63.3,58.8,50.4,66,50.4z"/>
		<polygon class="st1" points="64.5,84.4 70.2,84.4 75.5,124.2 70,124.2 		"/>
		<path class="st1" d="M95,39.4l5.6-11.5l-4.3-2.4l-9.5,20.1l-0.5-11l3.3-0.2l1.9-6.7h-6.3v-4.3h-5.4l0,0v2.9h-3.1v7.2h3.1v22h-3.1
			V61h1.5v4.1l-8.5,16.5l3.1,1.7l6.9-11v54.5c10.4,1.8,19.7-15.1,19.7-33.6c0-10.8-3.1-22.2-11.1-30.9h6v-7.2h-6.9L95,39.4z"/>
		<path class="st1" d="M85.8,87.9h4.5c-0.2-4.8-0.2-9.8-4.5-16.7V87.9z"/>
		<path class="st1" d="M85.8,93.7v20.1c4.5-1.2,5.5-14.3,5.5-20.1H85.8z"/>
		<path class="st1" d="M97.5,40.7l3.6-6.5c16.2,6.2,38,49.2,6.5,76.4l-0.2,6.4l-5.7,3.6l0.1-27.6l0.1-49.7L97.5,40.7z"/>
		<path class="st1" d="M107.7,51.2v48.7C114.7,92.5,125.6,70,107.7,51.2z"/>
	</g>
</g>
</svg>
